<?xml version="1.0" standalone="no"?>
<!DOCTYPE svg PUBLIC "-//W3C//DTD SVG 1.1//EN" "http://www.w3.org/Graphics/SVG/1.1/DTD/svg11.dtd">
<svg xmlns="http://www.w3.org/2000/svg" width="133" height="122" viewBox="0 0 133 122" fill="none">
<path d="M4 8H12.5L61 107L60.5 122L4 8Z" fill="#33568F"/>
<path d="M19 12H27L61 81L60.5 96L19 12Z" fill="#33568F"/>
<path d="M30.8278 7.81958L38 8L64.2525 61.6808L60.1724 69.1375L30.8278 7.81958Z" fill="#33568F"/>
<path d="M116 8L108.5 8L60.5 107L60.5 122L116 8Z" fill="#33568F"/>
<path d="M132.5 1L124.5 1L67 120H75L132.5 1Z" fill="#33568F"/>
<path d="M107 0.999999L98 0.999964L60.5 81L60.5 96L107 0.999999Z" fill="#33568F"/>
<path d="M107 0.999999L98 0.999964L60.5 81L60.5 96L107 0.999999Z" fill="#33568F"/>
<path d="M0.5 1H35L38.9766 10H4.99998L0.5 1Z" fill="#33568F"/>
<path d="M112 1H132.5L128 10L108 9L112 1Z" fill="#33568F"/>
</svg>